<?xml version="1.0" encoding="UTF-8" standalone="no"?>
<!-- Created with Inkscape (http://www.inkscape.org/) -->
<svg
   xmlns:dc="http://purl.org/dc/elements/1.1/"
   xmlns:cc="http://creativecommons.org/ns#"
   xmlns:rdf="http://www.w3.org/1999/02/22-rdf-syntax-ns#"
   xmlns:svg="http://www.w3.org/2000/svg"
   xmlns="http://www.w3.org/2000/svg"
   xmlns:sodipodi="http://sodipodi.sourceforge.net/DTD/sodipodi-0.dtd"
   xmlns:inkscape="http://www.inkscape.org/namespaces/inkscape"
   id="svg2403"
   sodipodi:version="0.32"
   inkscape:version="0.46"
   width="711.25"
   height="275"
   xml:space="preserve"
   sodipodi:docname="vispa_logo.svg"
   inkscape:output_extension="org.inkscape.output.svg.inkscape"><metadata
     id="metadata2408"><rdf:RDF><cc:Work
         rdf:about=""><dc:format>image/svg+xml</dc:format><dc:type
           rdf:resource="http://purl.org/dc/dcmitype/StillImage" /></cc:Work></rdf:RDF></metadata><defs
     id="defs2406"><inkscape:perspective
       sodipodi:type="inkscape:persp3d"
       inkscape:vp_x="0 : 526.18109 : 1"
       inkscape:vp_y="0 : 1000 : 0"
       inkscape:vp_z="744.09448 : 526.18109 : 1"
       inkscape:persp3d-origin="372.04724 : 350.78739 : 1"
       id="perspective2410" /><clipPath
       clipPathUnits="userSpaceOnUse"
       id="clipPath2420"><path
         d="M 0,0 L 569,0 L 569,220 L 0,220 L 0,0 z"
         id="path2422" /></clipPath></defs><sodipodi:namedview
     inkscape:window-height="713"
     inkscape:window-width="640"
     inkscape:pageshadow="2"
     inkscape:pageopacity="0.0"
     guidetolerance="10.0"
     gridtolerance="10.0"
     objecttolerance="10.0"
     borderopacity="1.0"
     bordercolor="#666666"
     pagecolor="#ffffff"
     id="base"
     showgrid="false"
     inkscape:zoom="0.75782074"
     inkscape:cx="355.625"
     inkscape:cy="137.5"
     inkscape:window-x="0"
     inkscape:window-y="0"
     inkscape:current-layer="g2412" /><g
     id="g2412"
     inkscape:groupmode="layer"
     inkscape:label="Vispa4c"
     transform="matrix(1.25,0,0,-1.25,0,275)"><g
       id="g2414" /><g
       id="g2416"><g
         id="g2418"
         clip-path="url(#clipPath2420)"><path
           d="M 0.417,155.708 L 26,3.938 L 41.693,3.938 L 115.643,155.708 L 100.38,155.708 L 62.759,77.675 C 55.667,63.055 48.571,48.008 41.906,33.175 L 36.103,20.06 L 34.384,34.893 C 33.525,41.13 32.662,47.362 31.59,53.381 L 15.467,155.708 L 0.417,155.708"
           style="fill:#176fc1;fill-opacity:1;fill-rule:nonzero;stroke:none"
           id="path2424" /><path
           d="M 126.979,155.708 L 95.164,3.938 L 109.565,3.938 L 141.383,155.708 L 126.979,155.708"
           style="fill:#176fc1;fill-opacity:1;fill-rule:nonzero;stroke:none"
           id="path2426" /><path
           d="M 252.78,111.425 L 252.78,114.436 C 252.78,127.978 248.267,135.932 245.043,140.446 C 240.529,146.895 232.145,155.279 214.3,158.29 C 208.067,159.366 203.554,159.366 200.972,159.366 C 179.047,159.366 166.792,150.765 160.343,144.099 C 153.034,136.578 148.734,126.905 148.734,116.155 C 148.734,94.873 165.286,86.701 171.522,83.47701 C 175.177,81.54201 179.047,79.82301 182.914,78.105 L 195.17,73.161 C 201.188,70.58 210.003,66.925 215.593,63.055 C 225.479,56.392 226.771,48.221 226.771,43.065 C 226.771,34.893 223.547,29.733 221.611,27.155 C 216.882,20.707 206.778,13.398 188.291,13.398 C 179.047,13.398 172.595,15.33 168.941,16.622 C 152.388,22.855 149.38,35.753 148.518,42.632 C 147.658,47.362 147.658,50.587 147.658,52.738 L 131.752,52.738 C 131.752,47.148 131.752,42.202 133.041,36.829 C 134.33,30.592 137.342,24.144 141.209,19.2 C 148.518,9.309999 161.419,0.496 187.645,0.496 C 198.177,0.496 207.851,1.789 217.311,6.303 C 232.358,13.611 243.107,27.585 243.107,44.997 C 243.107,68.001 224.407,77.675 218.387,80.68301 C 214.733,82.618 210.862,84.33701 206.992,85.842 L 190.869,92.508 C 177.541,98.31 170.446,101.535 166.575,107.985 C 163.997,112.285 163.784,116.585 163.784,118.304 C 163.784,125.399 167.221,130.342 168.727,132.278 C 176.466,142.168 189.363,145.822 201.188,145.822 C 216.022,146.035 225.909,140.446 230.209,136.362 C 232.791,133.783 237.947,127.118 238.38,117.015 C 238.593,114.649 238.38,112.285 238.38,111.642 L 252.78,111.425"
           style="fill:#176fc1;fill-opacity:1;fill-rule:nonzero;stroke:none"
           id="path2428" /><path
           d="M 292.813,87.991 L 292.813,134.64 L 305.714,134.64 C 313.452,134.64 318.969,132.635 322.266,128.62 C 325.563,124.608 327.21,118.733 327.21,110.992 C 327.21,103.11 325.274,97.30701 321.407,93.57999 C 317.68,89.854 312.734,87.991 306.573,87.991 L 292.813,87.991 z M 261.857,157.428 L 261.857,3.938 L 292.813,3.938 L 292.813,65.203 L 309.368,65.203 C 316.676,65.203 323.342,66.135 329.362,67.997 C 335.38,69.861 340.469,72.65601 344.625,76.382 C 348.922,80.108 352.218,84.911 354.511,90.786 C 356.948,96.66 358.165,103.543 358.165,111.425 C 358.165,117.156 357.451,122.745 356.017,128.19 C 354.583,133.78 352.218,138.727 348.922,143.024 C 345.625,147.324 341.256,150.765 335.81,153.344 C 330.506,156.067 323.913,157.428 316.03,157.428 L 261.857,157.428"
           style="fill:#176fc1;fill-opacity:1;fill-rule:evenodd;stroke:none"
           id="path2430" /><path
           d="M 420.293,61.765 L 405.46,130.772 L 405.03,130.772 L 390.197,61.765 L 420.293,61.765 z M 424.378,157.428 L 465.01,3.938 L 432.762,3.938 L 425.667,36.396 L 384.824,36.396 L 377.729,3.938 L 345.484,3.938 L 386.113,157.428 L 424.378,157.428"
           style="fill:#176fc1;fill-opacity:1;fill-rule:evenodd;stroke:none"
           id="path2432" /><path
           d="M 454.506,161.918 C 454.506,193.446 480.063,219.003 511.59,219.003 C 543.117,219.003 568.674,193.446 568.674,161.918 C 568.674,130.392 543.117,104.835 511.59,104.835 C 480.063,104.835 454.506,130.392 454.506,161.918"
           style="fill:#83a7dd;fill-opacity:1;fill-rule:nonzero;stroke:none"
           id="path2434" /><path
           d="M 507.884,153.904 L 555.756,138.875 L 550.85,131.293 L 496.802,148.47 L 463.454,148.625 L 461.916,157.129 L 497.197,156.984 L 550.8181,192.9 L 555.5031,185.785 L 537.933,174.022 L 560.551,171.364 L 561.425,162.636 L 527.054,166.738 L 507.884,153.904"
           style="fill:#ffffff;fill-opacity:1;fill-rule:nonzero;stroke:none"
           id="path2436" /></g></g></g></svg>